<svg id="Layer_1" data-name="Layer 1" xmlns="http://www.w3.org/2000/svg" xmlns:xlink="http://www.w3.org/1999/xlink" viewBox="0 0 52.81 46.51"><defs><style>.cls-1{fill:#d8f3ec;}.cls-2,.cls-4{fill:#fff;}.cls-3{fill:#009e6d;}.cls-4{stroke:#484949;stroke-miterlimit:10;stroke-width:0.25px;}.cls-5{fill:#61d8b6;}.cls-6{fill:url(#linear-gradient);}.cls-7{fill:url(#linear-gradient-2);}.cls-8{fill:url(#linear-gradient-3);}</style><linearGradient id="linear-gradient" x1="34.25" y1="55.39" x2="36.84" y2="55.39" gradientTransform="matrix(1, 0, 0, -1, 0, 59.5)" gradientUnits="userSpaceOnUse"><stop offset="0" stop-color="#fff"/><stop offset="0.05" stop-color="#e9e9e9"/><stop offset="0.2" stop-color="#acacac"/><stop offset="0.35" stop-color="#777"/><stop offset="0.5" stop-color="#4d4d4d"/><stop offset="0.64" stop-color="#2b2b2b"/><stop offset="0.77" stop-color="#131313"/><stop offset="0.9" stop-color="#050505"/><stop offset="1"/></linearGradient><linearGradient id="linear-gradient-2" x1="26.42" y1="55.03" x2="28.86" y2="55.03" xlink:href="#linear-gradient"/><linearGradient id="linear-gradient-3" x1="19.21" y1="55.03" x2="21.65" y2="55.03" xlink:href="#linear-gradient"/></defs><path class="cls-1" d="M50.21,47.39H5a3.83,3.83,0,0,1-3.82-3.81V11.38H54V43.67A3.74,3.74,0,0,1,50.21,47.39Z" transform="translate(-1.22 -0.87)"/><rect class="cls-2" x="9.6" y="16.51" width="7.2" height="6"/><rect class="cls-2" x="22.81" y="16.51" width="7.2" height="6"/><rect class="cls-2" x="36.01" y="16.51" width="7.2" height="6"/><rect class="cls-3" x="9.6" y="24.91" width="7.2" height="6"/><rect class="cls-2" x="22.81" y="24.91" width="7.2" height="6"/><rect class="cls-2" x="36.01" y="24.91" width="7.2" height="6"/><rect class="cls-2" x="9.6" y="33.31" width="7.2" height="6"/><rect class="cls-2" x="22.81" y="33.31" width="7.2" height="6"/><rect class="cls-2" x="36.01" y="33.31" width="7.2" height="6"/><path class="cls-4" d="M19.71,31.63l-2.56-1.57-.47,3c0,.11.1.16.16,0l.83-1.25.68,1.36c.11.21.21.21.21.21l.47-.21s.1,0,0-.21l-.68-1.36,1.36.16C19.76,31.79,19.81,31.68,19.71,31.63Z" transform="translate(-1.22 -0.87)"/><path class="cls-5" d="M1.22,4.11v7.2H54V4.11ZM20.44,9.42A2.15,2.15,0,0,1,18.3,7.28a2.14,2.14,0,1,1,2.14,2.14Zm7.26.21a2.15,2.15,0,0,1-2.14-2.14A2.12,2.12,0,0,1,27.7,5.35a2.15,2.15,0,0,1,2.14,2.14A2.12,2.12,0,0,1,27.7,9.63Zm7.83,0a2.15,2.15,0,0,1-2.14-2.14,2.12,2.12,0,0,1,2.14-2.14,2.15,2.15,0,0,1,2.14,2.14A2.12,2.12,0,0,1,35.53,9.63Z" transform="translate(-1.22 -0.87)"/><path class="cls-6" d="M36.05.87h0c-.57,0-1,.47-1.79,1V6.36c.8.57,1.27,1,1.79,1h0c.58,0,1-.47.61-1V1.87C37,1.29,36.63.87,36.05.87Z" transform="translate(-1.22 -0.87)"/><path class="cls-7" d="M27.59,1.24h0a1.31,1.31,0,0,0-1.16,1V6.72a1.29,1.29,0,0,0,1.16,1h0a1.47,1.47,0,0,0,1.24-1V2.23A1.4,1.4,0,0,0,27.59,1.24Z" transform="translate(-1.22 -0.87)"/><path class="cls-8" d="M20.44,1.24h0a1.42,1.42,0,0,0-1.21,1V6.72a1.41,1.41,0,0,0,1.21,1h0a1.37,1.37,0,0,0,1.19-1V2.23A1.31,1.31,0,0,0,20.44,1.24Z" transform="translate(-1.22 -0.87)"/></svg>