<?xml version="1.0" encoding="utf-8"?>
<!-- Generator: Adobe Illustrator 23.0.6, SVG Export Plug-In . SVG Version: 6.00 Build 0)  -->
<svg version="1.1" id="Layer_1" xmlns="http://www.w3.org/2000/svg" xmlns:xlink="http://www.w3.org/1999/xlink" x="0px" y="0px"
	 viewBox="0 0 154 138" style="enable-background:new 0 0 154 138;" xml:space="preserve">
<g>
	<path d="M137.2,29H17.7C11.6,29,7,24.9,7,18l0,0c0-5.5,4.6-9.6,10.7-9.6h117.9c6.1,0,10.7,4.1,10.7,9.6l0,0
		C147.9,24.9,143.3,29,137.2,29z"/>
	<g>
		<path d="M137.5,129.7H18c-6.1,0-10.7-4.1-10.7-11l0,0c0-5.5,4.6-9.6,10.7-9.6H136c6.1,0,10.7,4.1,10.7,9.6l0,0
			C148.2,125.5,143.6,129.7,137.5,129.7z"/>
	</g>
	<g>
		<path d="M137,79.7H17.5c-6.1,0-10.7-4.1-10.7-11l0,0c0-5.5,4.6-9.6,10.7-9.6h117.9c6.1,0,10.7,4.1,10.7,9.6l0,0
			C147.7,75.5,143.1,79.7,137,79.7z"/>
	</g>
</g>
</svg>
