<svg id="Layer_1" data-name="Layer 1" xmlns="http://www.w3.org/2000/svg" viewBox="0 0 130.95 189.25"><defs><style>.cls-1{fill:#feeecd;}.cls-1,.cls-3,.cls-5{stroke:#f9d698;stroke-miterlimit:10;}.cls-2,.cls-3{fill:#fff;}.cls-4{font-size:35.53px;fill:#8c8c8c;font-family:Sacramento-Regular, Sacramento;}.cls-5{fill:none;stroke-width:0.8px;}</style></defs><path class="cls-1" d="M143.39,54.59c.54-.62-.23-1.57-.89-2.05C136.26,48,113.79,28,74.63,28c-32.9,0-60.44,25.48-60.44,25.48s-1,.45-.33,1.24V195.6H143.37v-141Z" transform="translate(-13.13 -7.07)"/><path class="cls-2" d="M14.45,118.25s40.4-20.37,67.37-8.88c26.49,11.29,61.48,14.2,61.48,14.2v71.7H14.45Z" transform="translate(-13.13 -7.07)"/><line class="cls-3" x1="0.99" y1="47.83" x2="130.5" y2="47.83"/><circle class="cls-1" cx="64.43" cy="10.69" r="10.19"/><text class="cls-4" transform="translate(26.82 88.72)">Sugar</text><polyline class="cls-5" points="0.66 107.99 0.66 188.85 130.17 188.85 130.17 111.33"/></svg>