<?xml version="1.0" encoding="utf-8"?>
<!-- Generator: Adobe Illustrator 23.0.6, SVG Export Plug-In . SVG Version: 6.00 Build 0)  -->
<svg version="1.1" id="Layer_1" xmlns="http://www.w3.org/2000/svg" xmlns:xlink="http://www.w3.org/1999/xlink" x="0px" y="0px"
	 viewBox="0 0 417 254" style="enable-background:new 0 0 417 254;" xml:space="preserve">
<style type="text/css">
	.st0{fill:#6C63FF;}
	.st1{fill:none;stroke:#000000;stroke-width:8;stroke-miterlimit:10;}
	.st2{fill:none;stroke:#000000;stroke-width:5;stroke-miterlimit:10;}
	.st3{fill:#9A9A9A;}
	.st4{stroke:#000000;stroke-miterlimit:10;}
	.st5{fill:#FF0000;}
	.st6{fill:#E0E0E0;}
</style>
<path id="Path_36" class="st0" d="M326.4,47.1h25.8V71c0,2.8-2.3,5.1-5.1,5.1h-15.7c-2.8,0-5.1-2.3-5.1-5.1L326.4,47.1z"/>
<line id="Line_1" class="st1" x1="152.3" y1="82.8" x2="98.8" y2="254"/>
<line id="Line_2" class="st2" x1="60.4" y1="145.3" x2="18.4" y2="254"/>
<line id="Line_3" class="st2" x1="83.4" y1="145.5" x2="125" y2="254"/>
<ellipse id="Ellipse_3" class="st3" cx="70.8" cy="145" rx="48.7" ry="13.2"/>
<line id="Line_4" class="st2" x1="52.7" y1="169.3" x2="98.3" y2="183.3"/>
<line id="Line_5" class="st2" x1="93.4" y1="169.3" x2="47.8" y2="183.3"/>
<line id="Line_6" class="st1" x1="333.8" y1="82.8" x2="382" y2="254"/>
<rect id="Rectangle_7" x="98.6" y="77.2" class="st4" width="288.9" height="11.2"/>
<path id="Path_40" class="st5" d="M171.6,73.8h40.9c1.9,0,3.4,1.5,3.4,3.4c0,0,0,0,0,0l0,0c0,1.9-1.5,3.4-3.4,3.4c0,0,0,0,0,0h-40.9
	c-1.9,0-3.4-1.5-3.4-3.4c0,0,0,0,0,0l0,0C168.2,75.3,169.7,73.8,171.6,73.8C171.5,73.8,171.6,73.8,171.6,73.8z"/>
<path id="Path_43" class="st5" d="M214.8,0.2h84.4c7.7,0,13.9,6.2,13.9,13.9v52.6c0,7.7-6.2,13.9-13.9,13.9h-84.4
	c-7.7,0-13.9-6.2-13.9-13.9V14.1C200.9,6.4,207.1,0.2,214.8,0.2z"/>
<circle id="Ellipse_4" class="st6" cx="262.2" cy="39.8" r="3.6"/>
</svg>
