<?xml version="1.0" encoding="utf-8"?>
<!-- Generator: Adobe Illustrator 23.0.6, SVG Export Plug-In . SVG Version: 6.00 Build 0)  -->
<svg version="1.1" id="Layer_1" xmlns="http://www.w3.org/2000/svg" xmlns:xlink="http://www.w3.org/1999/xlink" x="0px" y="0px"
	 viewBox="0 0 230 212" style="enable-background:new 0 0 230 212;" xml:space="preserve">
<style type="text/css">
	.st0{fill:#8F5A6A;}
	.st1{fill:#FDB797;}
</style>
<path id="Path_47" class="st0" d="M153.2,27.8c9.7,3.5,18.6,10.2,22.7,19.6c1.4,3.3,2.3,6.9,4.4,9.8c4.6,6.5,13.7,7.7,20.2,12.4
	c8.3,6,11.4,17.3,10.2,27.4s-5.8,19.5-10.4,28.7c-4.8,9.6-9.8,19.4-17.8,26.7c-3.7,3.4-8.2,6.5-9.4,11.4c-1,4.2,0.8,8.6,0.4,12.9
	c-0.9,10.6-13.6,15.5-24.2,16.7c-4.6,0.5-9.9,0.5-13.1-2.8c-1.7-1.7-2.5-4-3.5-6.1c-7.2-14.6-24.9-20.5-39.4-13.3
	c-5.6,2.8-10.2,7.3-13.1,12.8c-2.5,4.8-3.9,10.6-8.5,13.5c-6.9,4.5-16.2-0.8-21.3-7.2s-8.8-14.6-16.1-18.5c-2.3-1.2-5-2-6.5-4.1
	c-2.8-3.8-0.4-9.3-2.3-13.6c-1.4-3.2-4.9-5-7-7.8c-4.2-5.9-1.2-14,2-20.5L38.9,88c5-10.4,10.2-21,17.2-30.2
	C77.7,29.6,119.3,15.6,153.2,27.8z"/>
<circle id="Ellipse_6" class="st1" cx="115.6" cy="126.2" r="58.7"/>
<path id="Path_48" class="st0" d="M100.2,113.6c2.4,1.1,5.2,1.1,7.8,1.1c10.4-0.1,20.8-0.5,31.1-1.2c7.9-0.5,16.2-1.5,22.3-6.5
	c8.2-6.8,9.5-19.5,5.2-29.2S153.9,61,144.8,55.5c-5.1-3.2-10.7-5.7-16.5-7.4c-16.8-4.6-35.4,1-48.8,12.3s-21.9,27.4-26.4,44.2
	c-1.6,5.8-3.6,12.8-9.3,14.5c3.8,6.4,13.2,7.4,20,4.2c9.9-4.7,15-22.8,23.9-25.6C97.5,94.5,91.7,109.8,100.2,113.6z"/>
</svg>
