<?xml version="1.0" encoding="utf-8"?>
<!-- Generator: Adobe Illustrator 23.0.6, SVG Export Plug-In . SVG Version: 6.00 Build 0)  -->
<svg version="1.1" id="Layer_1" xmlns="http://www.w3.org/2000/svg" xmlns:xlink="http://www.w3.org/1999/xlink" x="0px" y="0px"
	 viewBox="0 0 149 255" style="enable-background:new 0 0 149 255;" xml:space="preserve">
<style type="text/css">
	.st0{fill:none;stroke:#535461;stroke-width:2;stroke-miterlimit:10;}
	.st1{fill:#455B3F;}
</style>
<g id="Group_19" transform="translate(-38.849 -266.786)">
	<path id="Path_82" class="st0" d="M153.1,522c0,0-2.4-70.8-40.7-110.8C96.2,394.5,85.9,373,83,350c-1.3-11-1.6-22-0.9-33"/>
	<path id="Path_83" class="st1" d="M58.1,291.6c2.6,7.9,24.5,26.1,24.5,26.1s6.7-27.7,4.1-35.6c-2.6-7.9-11.2-12.2-19.1-9.6
		S55.5,283.7,58.1,291.6L58.1,291.6z"/>
	<path id="Path_84" class="st1" d="M49,343.3c6.5,5.2,34.8,8.6,34.8,8.6s-9.4-26.9-15.9-32.1c-6.7-4.9-16.2-3.5-21.1,3.2
		C42.1,329.3,43.1,338.1,49,343.3z"/>
	<path id="Path_85" class="st1" d="M74.8,417.8c8.2,1.2,34.3-10.1,34.3-10.1S87.4,389.2,79.2,388c-8.2-1.2-15.9,4.5-17.1,12.7
		C60.9,408.9,66.6,416.6,74.8,417.8L74.8,417.8L74.8,417.8L74.8,417.8z"/>
	<path id="Path_86" class="st1" d="M107,469.8c7.9,2.6,35.6-4.2,35.6-4.2s-18.3-21.9-26.2-24.5c-7.9-2.5-16.4,1.8-19,9.8
		C94.9,458.7,99.2,467.1,107,469.8L107,469.8z"/>
	<path id="Path_87" class="st1" d="M114.3,343.4c-3.8,7.4-28.4,21.9-28.4,21.9s-2.2-28.4,1.6-35.8c3.8-7.4,13-10.3,20.3-6.4
		S118.1,336,114.3,343.4z"/>
	<path id="Path_88" class="st1" d="M151.2,404.7c-5.9,5.9-33.6,12.4-33.6,12.4s6.4-27.8,12.2-33.7c5.9-5.9,15.4-5.9,21.3,0
		C157.1,389.2,157.1,398.8,151.2,404.7L151.2,404.7L151.2,404.7z"/>
	<path id="Path_89" class="st1" d="M179,469.1c-4.8,6.8-31,17.9-31,17.9s1.6-28.4,6.4-35.2c4.7-6.9,14.1-8.7,20.9-4
		c6.7,4.6,8.6,13.7,4.3,20.6C179.3,468.6,179.2,468.9,179,469.1L179,469.1z"/>
</g>
</svg>
