<svg id="Layer_1" data-name="Layer 1" xmlns="http://www.w3.org/2000/svg" viewBox="0 0 131.21 71.18"><defs><style>.cls-1{fill:#dcf0db;}.cls-2{fill:none;stroke:#dcf0db;stroke-width:5px;}.cls-2,.cls-3,.cls-4,.cls-5,.cls-6{stroke-miterlimit:10;}.cls-3{fill:#ef701b;}.cls-3,.cls-4,.cls-5{stroke:#5b5957;stroke-width:0.75px;}.cls-4{fill:#f9ba8f;}.cls-5{fill:#fff;}.cls-6{stroke:#000;}.cls-7{font-size:10.98px;font-family:MyriadPro-Regular, Myriad Pro;}.cls-8{letter-spacing:0em;}</style></defs><rect class="cls-1" x="2.5" y="8.84" width="10.93" height="10.93"/><path class="cls-1" d="M16.29,13.39v5.93H10.36V13.39h5.93m5-5H5.36V24.32H21.29V8.39Z" transform="translate(-5.36 -2.05)"/><path class="cls-1" d="M20.29,33.56V47.48H6.36V33.56H20.29m1-1H5.36V48.48H21.29V32.56Z" transform="translate(-5.36 -2.05)"/><path class="cls-1" d="M20.83,58.27V72.2H6.91V58.27H20.83m1-1H5.91V73.2H21.83V57.27Z" transform="translate(-5.36 -2.05)"/><line class="cls-2" x1="25.26" y1="19.8" x2="125.76" y2="19.8"/><rect class="cls-3" x="102.75" y="13.42" width="34.6" height="11.53" transform="translate(19.02 92.16) rotate(-47.18)"/><polygon class="cls-4" points="107.15 33.73 98.69 25.9 93.42 40.48 107.15 33.73"/><line class="cls-5" x1="109" y1="26.09" x2="121.69" y2="12.39"/><line class="cls-5" x1="106.18" y1="23.47" x2="118.87" y2="9.78"/><polygon class="cls-6" points="99.88 36.73 96.26 33.37 93.42 40.48 99.88 36.73"/><line class="cls-2" x1="26.36" y1="44.51" x2="126.86" y2="44.51"/><line class="cls-2" x1="25.26" y1="68.68" x2="125.76" y2="68.68"/><text class="cls-7" transform="translate(42.54 17.33)">Daily <tspan class="cls-8" x="25.27" y="0">R</tspan><tspan x="31.23" y="0">outine</tspan></text></svg>