<svg id="Layer_1" data-name="Layer 1" xmlns="http://www.w3.org/2000/svg" viewBox="0 0 317 136.65"><defs><style>.cls-1{fill:none;}.cls-2{fill:#fff;}.cls-3,.cls-6{fill:#46a140;}.cls-4{fill:#7abf75;}.cls-5,.cls-6{font-size:45.13px;}.cls-5{font-family:SweetSansPro-Hairline, Sweet Sans Pro;font-weight:100;}.cls-6{font-family:SweetSansPro-Light, Sweet Sans Pro;font-weight:300;letter-spacing:0.03em;}.cls-7{letter-spacing:0em;}.cls-8{letter-spacing:0.03em;}.cls-9{letter-spacing:0.04em;}</style></defs><path class="cls-1" d="M75.28,34.19,57.15,15.92a5.19,5.19,0,0,0-7.35,0L17.33,48.37A5.19,5.19,0,0,0,15.81,52v70.68A5.2,5.2,0,0,0,21,127.91H85.67a5.19,5.19,0,0,0,5.19-5.19V54.36c-.14,0-.31,0-.44,0a20.12,20.12,0,0,1-7.18-2.52c-2-1.4-3-2.37-5-5.6a21.43,21.43,0,0,1-2.55-7.76l-.53-4.24h.16Z" transform="translate(-9.22 -4.38)"/><polygon class="cls-2" points="87.91 49.45 87.39 49 87.97 49.52 88.03 49.57 88.03 49.56 87.91 49.45"/><path class="cls-2" d="M96.89,46.79a.53.53,0,0,0,0,.12.29.29,0,0,0,0,.09,4.74,4.74,0,0,0-.17-.57c0,.09.06.19.08.28Z" transform="translate(-9.22 -4.38)"/><path d="M90.86,54.36v68.36a5.19,5.19,0,0,1-5.19,5.19H21a5.2,5.2,0,0,1-5.19-5.19V52a5.19,5.19,0,0,1,1.52-3.67L49.8,15.91a5.19,5.19,0,0,1,7.35,0L75.28,34.19c.35,0,1.55,0,5.32,0a16.48,16.48,0,0,1,5,1l.68.24.14,0L57.07,5.91a5.19,5.19,0,0,0-7.35,0l-39,39a5.15,5.15,0,0,0-1.52,3.67v84.18a5.18,5.18,0,0,0,5.18,5.18H92.06a5.19,5.19,0,0,0,5.19-5.18V54.12A25.71,25.71,0,0,1,90.86,54.36Z" transform="translate(-9.22 -4.38)"/><path class="cls-3" d="M90.53,37.62A18.31,18.31,0,0,1,92.28,39,12.3,12.3,0,0,0,90.53,37.62Z" transform="translate(-9.22 -4.38)"/><path class="cls-3" d="M93.42,40.19l0,0,0,0Z" transform="translate(-9.22 -4.38)"/><path class="cls-3" d="M89.34,36.89l.2.11Z" transform="translate(-9.22 -4.38)"/><path class="cls-3" d="M85.58,35.18c.23.08.46.15.68.24Z" transform="translate(-9.22 -4.38)"/><path class="cls-3" d="M96.85,46.71c0,.07.05.13.07.2a.53.53,0,0,1,0-.12Z" transform="translate(-9.22 -4.38)"/><path class="cls-3" d="M96.61,53.38l.52.45.12.11.1.09v-.15A18.38,18.38,0,0,0,93.16,46c-3.57-4.1-4.54-3.52-10.57-4.69a9,9,0,0,1-7.47-7.06h0l.53,4.24A21.43,21.43,0,0,0,78.2,46.2c2,3.23,3,4.2,5,5.6a20.12,20.12,0,0,0,7.18,2.52c.13,0,.3,0,.44,0a25.71,25.71,0,0,0,6.39-.24l.16,0L97.25,54l-.07-.06Z" transform="translate(-9.22 -4.38)"/><path class="cls-4" d="M85.58,35.18a16.48,16.48,0,0,0-5-1c-3.77,0-5,0-5.32,0h-.16a9,9,0,0,0,7.47,7.06c6,1.17,7,.59,10.57,4.69a18.38,18.38,0,0,1,4.2,7.93l0,.18a29.76,29.76,0,0,0-.35-6.69L96.94,47a.29.29,0,0,1,0-.09c0-.07,0-.13-.07-.2s-.06-.19-.08-.28a16.61,16.61,0,0,0-3.34-6.23l0,0a12.57,12.57,0,0,0-.92-1c-.06-.05-.14-.1-.19-.15a18.31,18.31,0,0,0-1.75-1.36c-.32-.22-.65-.41-1-.62l-.2-.11a20,20,0,0,0-2.94-1.42l-.14,0C86,35.33,85.81,35.26,85.58,35.18Z" transform="translate(-9.22 -4.38)"/><text class="cls-5" transform="translate(97.11 78.23)">minimalist</text><text class="cls-6" transform="translate(97.11 122.88)">o<tspan class="cls-7" x="29.43" y="0">r</tspan><tspan x="47.21" y="0">gani</tspan><tspan class="cls-8" x="147.63" y="0">z</tspan><tspan class="cls-9" x="172.23" y="0">er</tspan></text></svg>