<?xml version="1.0" encoding="utf-8"?>
<!-- Generator: Adobe Illustrator 24.1.1, SVG Export Plug-In . SVG Version: 6.00 Build 0)  -->
<svg version="1.1" id="Layer_1" xmlns="http://www.w3.org/2000/svg" xmlns:xlink="http://www.w3.org/1999/xlink" x="0px" y="0px"
	 viewBox="0 0 160 110.2" style="enable-background:new 0 0 160 110.2;" xml:space="preserve">
<style type="text/css">
	.st0{fill:#F9A602;}
	.st1{font-family:'Gabriola';}
	.st2{font-size:42.7279px;}
	.st3{font-size:8.4993px;}
	.st4{fill:none;stroke:#F9A602;stroke-width:1.8;stroke-miterlimit:10;}
</style>
<g>
	<rect x="23.1" y="74.1" transform="matrix(0.4272 0.9042 -0.9042 0.4272 81.3799 21.1592)" class="st0" width="1.8" height="1.5"/>
	<text transform="matrix(1.0086 0 0 1 6.8716 36.242)"><tspan x="0" y="0" class="st1 st2">Minimalist </tspan><tspan x="0" y="42.5" class="st1 st3">       </tspan><tspan x="10.4" y="42.5" class="st1 st2">Organizer</tspan></text>
	<path class="st4" d="M24.4,74.6c2.6-1.3,4.9-1.8,5.6-1c0.8,1,0.2,2.9-1.9,5c-0.1,0.1-1.6,1.6-2.1,2.1c-1,1-0.8,1-2.1,2.3
		c-2.9,0-8.7,0.1-14.7,1.3c-0.5,0.1-0.9,0.2-1,0.5c-0.5,1.3,5.4,4.8,11.8,7.8c5.5,2.6,15,5.8,15.9,4.9c0.5-0.5-8.3-13-9.4-12.7
		c-0.5,0.1-1.7,0.5-2.3,1.6"/>
</g>
</svg>
