<?xml version="1.0" encoding="utf-8"?>
<!-- Generator: Adobe Illustrator 23.0.6, SVG Export Plug-In . SVG Version: 6.00 Build 0)  -->
<svg version="1.1" id="Layer_1" xmlns="http://www.w3.org/2000/svg" xmlns:xlink="http://www.w3.org/1999/xlink" x="0px" y="0px"
	 viewBox="0 0 234 150" style="enable-background:new 0 0 234 150;" xml:space="preserve">
<style type="text/css">
	.st0{fill:none;}
	.st1{font-family:'Gabriola';}
	.st2{font-size:60px;}
	.st3{font-size:59px;}
	.st4{fill:none;stroke:#F9A602;stroke-width:3;stroke-miterlimit:10;}
</style>
<g id="logo" transform="translate(-1098.579 -384.83)">
	<rect id="Rectangle_9" x="1125.9" y="391.8" class="st0" width="368.1" height="157.5"/>
	<g id="Group" transform="translate(1116.185 384.83)">
		<text transform="matrix(1 0 0 1 8.8183 45.7419)" class="st1 st2">Minimalist</text>
		<text transform="matrix(1 0 0 1 16.5773 93.4189)" class="st1 st3">Organizer</text>
	</g>
	<path id="Path_49" class="st4" d="M1141,470.5c3.9-8.8,13.7-1.8,11.6,2.7c-3.3,6.5-7.2,6.3-10.2,14.3c0,0-26.6,1.8-33.1,7.8
		c-3.9,3.5,28.4,13.5,51.5,21.2c5.9,2,9,1.8,9.2,0.4s-2.9-5.3-6.5-9.8c-7.4-9.2-17.4-21.2-20.6-11.4"/>
</g>
</svg>
