<?xml version="1.0" encoding="utf-8"?>
<!-- Generator: Adobe Illustrator 23.0.6, SVG Export Plug-In . SVG Version: 6.00 Build 0)  -->
<svg version="1.1" id="Layer_1" xmlns="http://www.w3.org/2000/svg" xmlns:xlink="http://www.w3.org/1999/xlink" x="0px" y="0px"
	 viewBox="0 0 215 188" style="enable-background:new 0 0 215 188;" xml:space="preserve">
<style type="text/css">
	.st0{opacity:0.6;}
	.st1{fill:none;stroke:#535461;stroke-width:2;stroke-miterlimit:10;}
	.st2{fill:#FFFFFF;}
</style>
<g id="Group_20" class="st0">
	<path id="Path_82" class="st1" d="M142,187.8c0,0-1.7-49.2-28.3-77.1c-11.2-11.6-18.4-26.5-20.5-42.6c-0.9-7.6-1.1-15.3-0.6-23"/>
	<path id="Path_83" class="st2" d="M75.9,27.6C77.7,33.1,93,45.7,93,45.7s4.7-19.2,2.8-24.7c-1.9-5.5-7.9-8.4-13.3-6.5
		C77.1,16.4,74.2,22.2,75.9,27.6L75.9,27.6z"/>
	<path id="Path_84" class="st2" d="M69.6,63.5c4.5,3.6,24.2,6,24.2,6s-6.5-18.7-11.1-22.3C78,43.7,71.4,44.7,68,49.3
		C64.7,53.7,65.4,59.9,69.6,63.5z"/>
	<path id="Path_85" class="st2" d="M87.5,115.3c5.7,0.8,23.9-7,23.9-7S96.3,95.4,90.6,94.6c-5.7-0.8-11.1,3.1-11.9,8.8
		C77.8,109.2,81.8,114.5,87.5,115.3L87.5,115.3L87.5,115.3z"/>
	<path id="Path_86" class="st2" d="M110,151.4c5.5,1.8,24.7-2.9,24.7-2.9s-12.7-15.2-18.2-17c-5.5-1.9-11.4,1-13.3,6.5
		c-1.9,5.5,1,11.4,6.5,13.3C109.7,151.4,109.8,151.4,110,151.4L110,151.4z"/>
	<path id="Path_87" class="st2" d="M115,63.6c-2.7,5.1-19.7,15.2-19.7,15.2S93.7,59,96.4,53.9c2.7-5.1,9-7.1,14.1-4.5
		S117.7,58.4,115,63.6L115,63.6L115,63.6z"/>
	<path id="Path_88" class="st2" d="M140.7,106.2c-4.1,4.1-23.4,8.6-23.4,8.6s4.4-19.3,8.5-23.4c4.1-4.1,10.8-4,14.8,0.1
		C144.7,95.6,144.7,102.1,140.7,106.2L140.7,106.2L140.7,106.2z"/>
	<path id="Path_89" class="st2" d="M160,151c-3.3,4.7-21.6,12.4-21.6,12.4s1.1-19.8,4.4-24.5c3.2-4.8,9.7-6.2,14.5-3
		c4.8,3.2,6.2,9.7,3,14.5C160.2,150.6,160.1,150.8,160,151L160,151z"/>
</g>
</svg>
